<svg width="120" height="120" viewBox="0 0 120 120" fill="none" xmlns="http://www.w3.org/2000/svg">
<path d="M12 60C12 72.7304 17.0571 84.9394 26.0589 93.9411C35.0606 102.943 47.2696 108 60 108C72.7304 108 84.9394 102.943 93.9411 93.9411C102.943 84.9394 108 72.7304 108 60C108 47.2696 102.943 35.0606 93.9411 26.0589C84.9394 17.0571 72.7304 12 60 12C47.2696 12 35.0606 17.0571 26.0589 26.0589C17.0571 35.0606 12 47.2696 12 60Z" fill="#D9EDFF"/>
<path d="M73.2 96.7805C73.2 95.7869 67.29 94.9805 60 94.9805C52.71 94.9805 46.8 95.7869 46.8 96.7805C46.8 97.7741 52.71 98.5805 60 98.5805C67.29 98.5805 73.2 97.7741 73.2 96.7805Z" fill="#B0D9FF"/>
<path d="M73.8888 59.2133L61.1292 33.6941C61.0244 33.4844 60.8632 33.308 60.6638 33.1847C60.4643 33.0614 60.2345 32.9961 60 32.9961C59.7655 32.9961 59.5357 33.0614 59.3363 33.1847C59.1368 33.308 58.9756 33.4844 58.8708 33.6941L46.1112 59.2133L29.9328 45.1913C29.7341 45.0184 29.4862 44.912 29.2239 44.8871C28.9617 44.8621 28.6982 44.9198 28.4704 45.0521C28.2426 45.1844 28.0618 45.3846 27.9535 45.6248C27.8452 45.8649 27.8148 46.133 27.8664 46.3913L34.7472 81.9461C34.7472 81.9461 34.7472 88.2593 60 88.2593C85.2528 88.2593 85.2516 81.9461 85.2516 81.9461L92.1336 46.3913C92.1853 46.133 92.1548 45.8649 92.0465 45.6248C91.9382 45.3846 91.7575 45.1844 91.5297 45.0521C91.3019 44.9198 91.0384 44.8621 90.7761 44.8871C90.5139 44.912 90.266 45.0184 90.0672 45.1913L73.8888 59.2133Z" fill="white"/>
<path d="M33.6648 76.3457L34.7448 81.9413C34.7448 81.9413 34.7448 88.2545 59.9976 88.2545C85.2504 88.2545 85.2492 81.9413 85.2492 81.9413L86.3292 76.3457C83.9052 78.1973 77.4084 80.6789 59.994 80.6789C42.5796 80.6789 36.0876 78.1973 33.6648 76.3457Z" fill="#B0D9FF"/>
<path d="M33.6648 76.3457C36.0876 78.1973 42.5844 80.6789 60 80.6789C77.4156 80.6789 83.9112 78.1973 86.3352 76.3457" stroke="#020064" stroke-width="0.24" stroke-linejoin="round"/>
<path d="M73.8888 59.2133L61.1292 33.6941C61.0244 33.4844 60.8632 33.308 60.6638 33.1847C60.4643 33.0614 60.2345 32.9961 60 32.9961C59.7655 32.9961 59.5357 33.0614 59.3363 33.1847C59.1368 33.308 58.9756 33.4844 58.8708 33.6941L46.1112 59.2133L29.9328 45.1913C29.7341 45.0184 29.4862 44.912 29.2239 44.8871C28.9617 44.8621 28.6982 44.9198 28.4704 45.0521C28.2426 45.1844 28.0618 45.3846 27.9535 45.6248C27.8452 45.8649 27.8148 46.133 27.8664 46.3913L34.7472 81.9461C34.7472 81.9461 34.7472 88.2593 60 88.2593C85.2528 88.2593 85.2516 81.9461 85.2516 81.9461L92.1336 46.3913C92.1853 46.133 92.1548 45.8649 92.0465 45.6248C91.9382 45.3846 91.7575 45.1844 91.5297 45.0521C91.3019 44.9198 91.0384 44.8621 90.7761 44.8871C90.5139 44.912 90.266 45.0184 90.0672 45.1913L73.8888 59.2133Z" stroke="#020064" stroke-width="0.24" stroke-linejoin="round"/>
<path d="M83.8536 28.6407C84.016 27.9415 84.3712 27.3018 84.8787 26.7943C85.3863 26.2867 86.026 25.9316 86.7252 25.7691L92.4852 24.4395C92.5901 24.4144 92.6835 24.3547 92.7503 24.27C92.8171 24.1853 92.8534 24.0806 92.8534 23.9727C92.8534 23.8649 92.8171 23.7602 92.7503 23.6755C92.6835 23.5908 92.5901 23.5311 92.4852 23.5059L86.7252 22.1775C86.0256 22.0159 85.3855 21.661 84.8778 21.1533C84.3701 20.6456 84.0152 20.0055 83.8536 19.3059L82.524 13.5459C82.4989 13.441 82.4392 13.3477 82.3545 13.2809C82.2698 13.2141 82.1651 13.1777 82.0572 13.1777C81.9493 13.1777 81.8446 13.2141 81.7599 13.2809C81.6753 13.3477 81.6155 13.441 81.5904 13.5459L80.262 19.3059C80.0996 20.0051 79.7445 20.6448 79.2369 21.1524C78.7293 21.66 78.0896 22.0151 77.3904 22.1775L71.6304 23.5059C71.5255 23.5311 71.4321 23.5908 71.3653 23.6755C71.2985 23.7602 71.2622 23.8649 71.2622 23.9727C71.2622 24.0806 71.2985 24.1853 71.3653 24.27C71.4321 24.3547 71.5255 24.4144 71.6304 24.4395L77.3904 25.7691C78.0898 25.9308 78.7297 26.2858 79.2372 26.7935C79.7447 27.3012 80.0994 27.9413 80.2608 28.6407L81.5904 34.4007C81.6155 34.5056 81.6753 34.599 81.7599 34.6658C81.8446 34.7326 81.9493 34.7689 82.0572 34.7689C82.1651 34.7689 82.2698 34.7326 82.3545 34.6658C82.4392 34.599 82.4989 34.5056 82.524 34.4007L83.8536 28.6407Z" fill="white" stroke="#020064" stroke-width="0.24" stroke-linecap="round" stroke-linejoin="round"/>
<path d="M112.76 62.1978C112.865 61.7501 113.092 61.3405 113.417 61.0156C113.743 60.6907 114.152 60.4633 114.6 60.3594L118.302 59.505C118.369 59.4889 118.43 59.4505 118.473 59.3961C118.516 59.3417 118.539 59.2743 118.539 59.205C118.539 59.1356 118.516 59.0683 118.473 59.0139C118.43 58.9594 118.369 58.9211 118.302 58.905L114.6 58.0458C114.151 57.9418 113.739 57.7139 113.413 57.3878C113.087 57.0618 112.859 56.6507 112.754 56.2014L111.901 52.5006C111.885 52.4331 111.847 52.373 111.792 52.33C111.738 52.2871 111.671 52.2637 111.601 52.2637C111.532 52.2637 111.465 52.2871 111.41 52.33C111.356 52.373 111.317 52.4331 111.301 52.5006L110.448 56.2014C110.344 56.6508 110.116 57.0619 109.789 57.388C109.463 57.7141 109.052 57.942 108.602 58.0458L104.903 58.899C104.835 58.9151 104.775 58.9534 104.732 59.0078C104.689 59.0623 104.666 59.1296 104.666 59.199C104.666 59.2683 104.689 59.3357 104.732 59.3901C104.775 59.4446 104.835 59.4829 104.903 59.499L108.602 60.3534C109.052 60.457 109.463 60.6849 109.789 61.011C110.115 61.3371 110.343 61.7484 110.447 62.1978L111.301 65.8998C111.317 65.9673 111.356 66.0273 111.41 66.0703C111.465 66.1133 111.532 66.1367 111.601 66.1367C111.671 66.1367 111.738 66.1133 111.792 66.0703C111.847 66.0273 111.885 65.9673 111.901 65.8998L112.76 62.1978Z" fill="white" stroke="#020064" stroke-width="0.24" stroke-linecap="round" stroke-linejoin="round"/>
<path d="M38.7023 34.1754C38.8304 33.6199 39.1121 33.1115 39.5153 32.7083C39.9184 32.3052 40.4268 32.0235 40.9823 31.8954L45.5543 30.8406C45.6377 30.8209 45.712 30.7736 45.7652 30.7064C45.8183 30.6393 45.8472 30.5561 45.8472 30.4704C45.8472 30.3847 45.8183 30.3016 45.7652 30.2344C45.712 30.1672 45.6377 30.1199 45.5543 30.1002L40.9823 29.0454C40.4267 28.9176 39.9181 28.636 39.5149 28.2328C39.1118 27.8296 38.8302 27.3211 38.7023 26.7654L37.6475 22.1994C37.6288 22.1152 37.582 22.0398 37.5147 21.9858C37.4474 21.9318 37.3636 21.9023 37.2773 21.9023C37.191 21.9023 37.1073 21.9318 37.04 21.9858C36.9727 22.0398 36.9258 22.1152 36.9071 22.1994L35.8523 26.7678C35.7244 27.3234 35.4427 27.8319 35.0396 28.2351C34.6364 28.6382 34.128 28.9199 33.5723 29.0478L29.0027 30.1014C28.9194 30.1211 28.8451 30.1684 28.7919 30.2356C28.7388 30.3028 28.7098 30.3859 28.7098 30.4716C28.7098 30.5573 28.7388 30.6405 28.7919 30.7076C28.8451 30.7748 28.9194 30.8221 29.0027 30.8418L33.5723 31.8966C34.1279 32.0247 34.6363 32.3064 35.0394 32.7095C35.4426 33.1127 35.7243 33.6211 35.8523 34.1766L36.9071 38.7486C36.9268 38.832 36.9741 38.9063 37.0413 38.9594C37.1085 39.0126 37.1917 39.0415 37.2773 39.0415C37.363 39.0415 37.4462 39.0126 37.5134 38.9594C37.5806 38.9063 37.6278 38.832 37.6475 38.7486L38.7023 34.1754Z" fill="white" stroke="#020064" stroke-width="0.24" stroke-linecap="round" stroke-linejoin="round"/>
</svg>
