<svg width="20" height="20" viewBox="0 0 20 20" fill="none" xmlns="http://www.w3.org/2000/svg">
<path fill-rule="evenodd" clip-rule="evenodd" d="M17.4667 10.1768C17.4667 9.62533 17.4172 9.09503 17.3253 8.58594H10V11.5945H14.1859C14.0056 12.5667 13.4576 13.3905 12.6338 13.942V15.8935H15.1475C16.6182 14.5395 17.4667 12.5455 17.4667 10.1768Z" fill="#4285F4"/>
<path fill-rule="evenodd" clip-rule="evenodd" d="M10.0013 17.7785C12.1013 17.7785 13.8619 17.0821 15.1488 15.8942L12.6351 13.9427C11.9387 14.4093 11.0478 14.6851 10.0013 14.6851C7.97553 14.6851 6.26089 13.3169 5.64927 11.4785H3.05078V13.4937C4.33058 16.0356 6.96089 17.7785 10.0013 17.7785Z" fill="#34A853"/>
<path fill-rule="evenodd" clip-rule="evenodd" d="M5.64842 11.4785C5.49286 11.0119 5.40448 10.5134 5.40448 10.0007C5.40448 9.48812 5.49286 8.98963 5.64842 8.52296V6.50781H3.04993C2.52316 7.55781 2.22266 8.74569 2.22266 10.0007C2.22266 11.2558 2.52316 12.4437 3.04993 13.4937L5.64842 11.4785Z" fill="#FBBC05"/>
<path fill-rule="evenodd" clip-rule="evenodd" d="M10.0013 5.31609C11.1432 5.31609 12.1685 5.70851 12.9745 6.47922L15.2053 4.24841C13.8584 2.99336 12.0978 2.22266 10.0013 2.22266C6.96089 2.22266 4.33058 3.96559 3.05078 6.5075L5.64927 8.52266C6.26089 6.68427 7.97553 5.31609 10.0013 5.31609Z" fill="#EA4335"/>
</svg>
