<svg width="257" height="256" viewBox="0 0 257 256" fill="none" xmlns="http://www.w3.org/2000/svg">
<path d="M136.813 196.345C176.949 196.345 209.486 163.808 209.486 123.673C209.486 83.5366 176.949 51 136.813 51C96.6772 51 64.1406 83.5366 64.1406 123.673C64.1406 163.808 96.6772 196.345 136.813 196.345Z" fill="#DBE8EC"/>
<path d="M228.5 124.891V117.277C228.5 115.825 227.923 114.432 226.896 113.405C225.87 112.379 224.477 111.802 223.025 111.802H203.701C202.982 111.802 202.27 111.66 201.606 111.385C200.942 111.11 200.338 110.707 199.83 110.198C199.322 109.69 198.918 109.086 198.643 108.422C198.368 107.758 198.226 107.046 198.226 106.327V98.7126C198.226 97.9936 198.368 97.2817 198.643 96.6174C198.918 95.9532 199.322 95.3497 199.83 94.8413C200.338 94.3329 200.942 93.9297 201.606 93.6545C202.27 93.3794 202.982 93.2378 203.701 93.2378H204.311C205.763 93.2378 207.156 92.661 208.183 91.6343C209.209 90.6075 209.786 89.215 209.786 87.763V80.1486C209.786 78.6966 209.209 77.3041 208.183 76.2774C207.156 75.2506 205.763 74.6738 204.311 74.6738H65.3823C63.9303 74.6738 62.5378 75.2506 61.511 76.2774C60.4843 77.3041 59.9075 78.6966 59.9075 80.1486V87.763C59.9075 89.215 60.4843 90.6075 61.511 91.6343C62.5378 92.661 63.9303 93.2378 65.3823 93.2378C66.1012 93.2378 66.8132 93.3794 67.4774 93.6545C68.1416 93.9297 68.7452 94.3329 69.2535 94.8413C69.7619 95.3497 70.1652 95.9532 70.4403 96.6174C70.7155 97.2817 70.8571 97.9936 70.8571 98.7126V106.327C70.8571 107.046 70.7155 107.758 70.4403 108.422C70.1652 109.086 69.7619 109.69 69.2535 110.198C68.7452 110.707 68.1416 111.11 67.4774 111.385C66.8132 111.66 66.1012 111.802 65.3823 111.802H44.2109C42.7589 111.802 41.3664 112.379 40.3396 113.405C39.3129 114.432 38.7361 115.825 38.7361 117.277V124.891C38.7361 125.61 38.8777 126.322 39.1529 126.986C39.428 127.65 39.8313 128.254 40.3396 128.762C40.848 129.271 41.4515 129.674 42.1158 129.949C42.78 130.224 43.4919 130.366 44.2109 130.366H52.5182C53.9702 130.366 55.3627 130.943 56.3895 131.969C57.4162 132.996 57.993 134.388 57.993 135.84V143.455C57.993 144.174 57.8514 144.886 57.5763 145.55C57.3011 146.214 56.8978 146.818 56.3895 147.326C55.8811 147.835 55.2776 148.238 54.6133 148.513C53.9491 148.788 53.2372 148.93 52.5182 148.93H52.4981C51.0461 148.93 49.6536 149.507 48.6269 150.533C47.6002 151.56 47.0234 152.952 47.0234 154.404V162.019C47.0234 162.738 47.165 163.45 47.4401 164.114C47.7153 164.778 48.1185 165.382 48.6269 165.89C49.1353 166.398 49.7388 166.802 50.4031 167.077C51.0673 167.352 51.7792 167.494 52.4982 167.494H53.7001C55.1521 167.494 56.5446 168.07 57.5713 169.097C58.598 170.124 59.1748 171.516 59.1748 172.968V180.583C59.1748 182.035 58.598 183.427 57.5713 184.454C56.5446 185.481 55.152 186.058 53.7 186.058H33.9748C33.2558 186.058 32.5439 186.199 31.8797 186.474C31.2154 186.749 30.6119 187.153 30.1035 187.661C29.5951 188.169 29.1919 188.773 28.9167 189.437C28.6416 190.101 28.5 190.813 28.5 191.532V199.147C28.5 199.866 28.6416 200.578 28.9167 201.242C29.1919 201.906 29.5951 202.51 30.1035 203.018C30.6119 203.526 31.2154 203.93 31.8797 204.205C32.5439 204.48 33.2558 204.622 33.9748 204.622H207.251C208.703 204.622 210.095 204.045 211.122 203.018C212.148 201.991 212.725 200.599 212.725 199.147V191.532C212.725 190.08 212.148 188.688 211.122 187.661C210.095 186.634 208.703 186.058 207.251 186.058H202.504C201.052 186.058 199.659 185.481 198.632 184.454C197.606 183.427 197.029 182.035 197.029 180.583V172.968C197.029 171.516 197.606 170.124 198.632 169.097C199.659 168.07 201.052 167.494 202.504 167.494H213.696C215.148 167.494 216.541 166.917 217.568 165.89C218.594 164.863 219.171 163.471 219.171 162.019V154.404C219.171 152.952 218.594 151.56 217.568 150.533C216.541 149.506 215.148 148.93 213.696 148.93H210.301C209.582 148.93 208.87 148.788 208.206 148.513C207.542 148.238 206.938 147.835 206.43 147.326C205.921 146.818 205.518 146.214 205.243 145.55C204.968 144.886 204.826 144.174 204.826 143.455V135.84C204.826 134.388 205.403 132.996 206.43 131.969C207.456 130.942 208.849 130.366 210.301 130.366H223.025C224.477 130.366 225.87 129.789 226.896 128.762C227.923 127.735 228.5 126.343 228.5 124.891Z" fill="#DBE8EC"/>
<path d="M61.0195 128.253H73.7111" stroke="#B9D4DB" stroke-width="3" stroke-miterlimit="10" stroke-linecap="round"/>
<path d="M61.0195 131.911H73.7111" stroke="#B9D4DB" stroke-width="3" stroke-miterlimit="10" stroke-linecap="round"/>
<path d="M61.0195 135.569H73.7111" stroke="#B9D4DB" stroke-width="3" stroke-miterlimit="10" stroke-linecap="round"/>
<path d="M177.176 158.402H189.867" stroke="#B9D4DB" stroke-width="3" stroke-miterlimit="10" stroke-linecap="round"/>
<path d="M177.176 162.06H189.867" stroke="#B9D4DB" stroke-width="3" stroke-miterlimit="10" stroke-linecap="round"/>
<path d="M177.176 165.718H189.867" stroke="#B9D4DB" stroke-width="3" stroke-miterlimit="10" stroke-linecap="round"/>
<path d="M121.15 63.9126H133.842" stroke="#B9D4DB" stroke-width="3" stroke-miterlimit="10" stroke-linecap="round"/>
<path d="M121.15 67.5708H133.842" stroke="#B9D4DB" stroke-width="3" stroke-miterlimit="10" stroke-linecap="round"/>
<path d="M121.15 71.2285H133.842" stroke="#B9D4DB" stroke-width="3" stroke-miterlimit="10" stroke-linecap="round"/>
<path d="M156.731 199.825C159.727 199.825 162.156 197.396 162.156 194.4C162.156 191.404 159.727 188.976 156.731 188.976C153.735 188.976 151.307 191.404 151.307 194.4C151.307 197.396 153.735 199.825 156.731 199.825Z" fill="#B9D4DB"/>
<path d="M149.496 184.254C151.05 184.254 152.309 182.994 152.309 181.441C152.309 179.887 151.05 178.628 149.496 178.628C147.943 178.628 146.684 179.887 146.684 181.441C146.684 182.994 147.943 184.254 149.496 184.254Z" fill="#B9D4DB"/>
<path d="M167.897 188.272C170.117 188.272 171.916 186.473 171.916 184.254C171.916 182.034 170.117 180.235 167.897 180.235C165.678 180.235 163.879 182.034 163.879 184.254C163.879 186.473 165.678 188.272 167.897 188.272Z" fill="#B9D4DB"/>
<path d="M79.6986 88.6789C83.2632 88.6789 86.153 85.7891 86.153 82.2244C86.153 78.6598 83.2632 75.77 79.6986 75.77C76.1339 75.77 73.2441 78.6598 73.2441 82.2244C73.2441 85.7891 76.1339 88.6789 79.6986 88.6789Z" fill="#B9D4DB"/>
<path d="M67.364 80.9891C69.2207 80.9891 70.726 79.4839 70.726 77.6271C70.726 75.7704 69.2207 74.2651 67.364 74.2651C65.5072 74.2651 64.002 75.7704 64.002 77.6271C64.002 79.4839 65.5072 80.9891 67.364 80.9891Z" fill="#B9D4DB"/>
<path d="M70.453 68.1379C71.524 68.1379 72.3922 67.2696 72.3922 66.1986C72.3922 65.1275 71.524 64.2593 70.453 64.2593C69.3819 64.2593 68.5137 65.1275 68.5137 66.1986C68.5137 67.2696 69.3819 68.1379 70.453 68.1379Z" fill="#B9D4DB"/>
<path d="M81.188 72.2193C83.7555 72.2193 85.8369 70.1379 85.8369 67.5703C85.8369 65.0028 83.7555 62.9214 81.188 62.9214C78.6205 62.9214 76.5391 65.0028 76.5391 67.5703C76.5391 70.1379 78.6205 72.2193 81.188 72.2193Z" fill="#B9D4DB"/>
<path d="M195.056 105.534C198.621 105.534 201.51 102.644 201.51 99.0794C201.51 95.5147 198.621 92.625 195.056 92.625C191.491 92.625 188.602 95.5147 188.602 99.0794C188.602 102.644 191.491 105.534 195.056 105.534Z" fill="#B9D4DB"/>
<path d="M181.913 103.169C183.77 103.169 185.275 101.664 185.275 99.8068C185.275 97.95 183.77 96.4448 181.913 96.4448C180.056 96.4448 178.551 97.95 178.551 99.8068C178.551 101.664 180.056 103.169 181.913 103.169Z" fill="#B9D4DB"/>
<path d="M182.189 80.2395C183.796 80.2395 185.099 78.9368 185.099 77.3297C185.099 75.7227 183.796 74.4199 182.189 74.4199C180.582 74.4199 179.279 75.7227 179.279 77.3297C179.279 78.9368 180.582 80.2395 182.189 80.2395Z" fill="#B9D4DB"/>
<path d="M180.164 90.0378C181.235 90.0378 182.103 89.1695 182.103 88.0985C182.103 87.0274 181.235 86.1592 180.164 86.1592C179.093 86.1592 178.225 87.0274 178.225 88.0985C178.225 89.1695 179.093 90.0378 180.164 90.0378Z" fill="#B9D4DB"/>
<path d="M190.551 89.7041C193.119 89.7041 195.2 87.6227 195.2 85.0552C195.2 82.4876 193.119 80.4062 190.551 80.4062C187.984 80.4062 185.902 82.4876 185.902 85.0552C185.902 87.6227 187.984 89.7041 190.551 89.7041Z" fill="#B9D4DB"/>
<path d="M149.073 114.366C157.596 114.366 164.504 107.458 164.504 98.9357C164.504 90.4135 157.596 83.5049 149.073 83.5049C140.551 83.5049 133.643 90.4135 133.643 98.9357C133.643 107.458 140.551 114.366 149.073 114.366Z" fill="#D62828"/>
<path d="M158.221 93.7148C159.558 93.7148 160.642 92.631 160.642 91.2942C160.642 89.9573 159.558 88.8735 158.221 88.8735C156.885 88.8735 155.801 89.9573 155.801 91.2942C155.801 92.631 156.885 93.7148 158.221 93.7148Z" fill="#F9AE2B"/>
<path d="M198.859 136.546C203.226 127.66 182.146 108.359 151.776 93.4361C121.406 78.5132 93.2469 73.6193 88.8806 82.5052C84.5142 91.3912 105.594 110.692 135.964 125.615C166.334 140.538 194.493 145.432 198.859 136.546Z" fill="#409CB5"/>
<path d="M148.572 99.9537C175.126 113.002 194.578 129.396 196.128 139.25C197.298 138.657 198.253 137.711 198.858 136.546C203.225 127.66 182.145 108.359 151.775 93.4365C121.405 78.5136 93.246 73.6197 88.8796 82.5057C88.3274 83.6962 88.1622 85.0299 88.4073 86.3192C97.1549 81.5253 122.018 86.9057 148.572 99.9537Z" fill="#3086A3"/>
<path d="M162.643 126.715C164.384 123.172 155.979 115.476 143.869 109.526C131.76 103.576 120.532 101.625 118.791 105.168C117.05 108.711 125.455 116.407 137.565 122.357C149.674 128.307 160.902 130.258 162.643 126.715Z" fill="#F9AE2B"/>
<path d="M142.592 112.125C153.18 117.327 160.936 123.864 161.554 127.794C162.021 127.557 162.402 127.18 162.643 126.715C164.384 123.172 155.979 115.476 143.869 109.526C131.76 103.576 120.532 101.625 118.791 105.168C118.571 105.642 118.505 106.174 118.603 106.688C122.091 104.777 132.004 106.922 142.592 112.125Z" fill="#EA9918"/>
<path d="M136.795 201.223H40.4609L118.604 106.688L162.006 128.015L136.795 201.223Z" fill="url(#paint0_linear_1376_134322)"/>
<defs>
<linearGradient id="paint0_linear_1376_134322" x1="153.728" y1="123.131" x2="75.3123" y2="215.996" gradientUnits="userSpaceOnUse">
<stop stop-color="#F9AE2B"/>
<stop offset="1" stop-color="white" stop-opacity="0"/>
</linearGradient>
</defs>
</svg>
