<svg width="256" height="256" viewBox="0 0 256 256" fill="none" xmlns="http://www.w3.org/2000/svg">
<path opacity="0.3" d="M163.053 68.9044C156.071 70.2227 148.958 67.4791 142.763 63.9995C134.141 59.1598 126.441 52.8341 118.066 47.5752C109.691 42.3163 100.281 38.0402 90.3878 38.0215C80.4987 38.0029 70.1206 43.0895 66.2218 52.182C62.0901 61.8195 65.9237 73.0175 64.135 83.349C61.233 100.104 44.2497 111.763 41.4177 128.532C39.7966 138.137 43.211 148.035 48.6469 156.112C60.2176 173.305 81.8356 183.525 102.326 180.404C115.364 178.42 127.252 171.498 137.15 162.778C147.048 154.058 155.181 143.554 163.249 133.12" fill="#ABD5E6"/>
<path opacity="0.3" d="M169.016 189.739C166.57 186.833 164.311 183.768 162.262 180.572C160.291 177.507 158.489 174.251 157.771 170.679C156.807 165.881 157.883 160.92 159.211 156.211C160.739 150.807 162.644 145.432 165.811 140.797C168.983 136.162 173.553 132.296 178.994 130.908C183.423 129.776 188.123 130.331 192.604 129.418C201.273 127.643 207.967 120.591 212.322 112.895C214.618 108.838 216.742 104.199 220.963 102.219C225.909 99.8995 232.193 102.466 235.221 107.012C238.249 111.559 238.5 117.498 237.256 122.817C236.013 128.137 233.423 133.028 231.08 137.965C228.732 142.903 226.576 148.073 226.282 153.528C225.802 162.527 230.446 171.368 229.175 180.293C228.457 185.31 225.891 189.907 222.667 193.815C219.989 197.062 216.784 199.941 212.993 201.757C207.314 204.477 200.616 204.617 194.537 202.973C188.459 201.333 182.939 198.017 178.001 194.109" fill="#FFCE68"/>
<path opacity="0.1" d="M132.413 219.88C189.277 219.88 235.374 217.278 235.374 214.067C235.374 210.857 189.277 208.254 132.413 208.254C75.5487 208.254 29.4512 210.857 29.4512 214.067C29.4512 217.278 75.5487 219.88 132.413 219.88Z" fill="#1D262D"/>
<path d="M216.039 64.4648H104.632V213.089H216.039V64.4648Z" fill="#215B74"/>
<path opacity="0.2" d="M209.215 74.4785H111.447V207.62H209.215V74.4785Z" fill="#1D262D"/>
<path d="M209.215 72.2051H111.447V205.346H209.215V72.2051Z" fill="white"/>
<path d="M104.143 73.7146V63.9746H113.883L104.143 73.7146Z" fill="#DC894E"/>
<path d="M216.523 73.7146V63.9746H206.783L216.523 73.7146Z" fill="#DC894E"/>
<path d="M104.143 204.219V213.959H113.883L104.143 204.219Z" fill="#DC894E"/>
<path d="M216.523 204.219V213.959H206.783L216.523 204.219Z" fill="#DC894E"/>
<path d="M160.334 68.1247C156.491 68.1247 153.375 69.9041 153.375 66.0566V65.465C153.375 61.6221 156.491 58.5059 160.334 58.5059C164.177 58.5059 167.293 61.6221 167.293 65.465V66.0566C167.293 69.8995 164.177 68.1247 160.334 68.1247Z" fill="#FFCE68"/>
<path opacity="0.2" d="M178.514 73.7148H142.158V76.9848H178.514V73.7148Z" fill="#1D262D"/>
<path d="M179.496 62.75H141.165V75.6342H179.496V62.75Z" fill="#FFCE68"/>
<path opacity="0.2" d="M184.345 69.8301H137.336V77.2177H184.345V69.8301Z" fill="#CC2A3A"/>
<path d="M134.608 96.877H121.23V110.255H134.608V96.877Z" fill="#ABD5E6"/>
<path d="M136.024 111.671H119.814V95.4609H136.024V111.671ZM120.303 111.182H135.535V95.95H120.303V111.182Z" fill="#ABD5E6"/>
<path d="M134.608 117.371H121.23V130.749H134.608V117.371Z" fill="#ABD5E6"/>
<path d="M136.024 132.161H119.814V115.951H136.024V132.161ZM120.303 131.672H135.535V116.44H120.303V131.672Z" fill="#ABD5E6"/>
<path d="M134.608 137.861H121.23V151.239H134.608V137.861Z" fill="#ABD5E6"/>
<path d="M136.024 152.655H119.814V136.445H136.024V152.655ZM120.303 152.166H135.535V136.934H120.303V152.166Z" fill="#ABD5E6"/>
<path d="M126.726 108.246L119.003 100.607C118.467 100.076 118.462 99.2142 118.994 98.6831C119.525 98.1475 120.386 98.1475 120.917 98.6738L126.619 104.315L135.665 94.3232C136.168 93.7642 137.029 93.7223 137.588 94.23C138.147 94.7331 138.189 95.5948 137.682 96.1538L126.726 108.246Z" fill="#23809B"/>
<path d="M126.726 128.895L119.003 121.255C118.467 120.724 118.462 119.863 118.994 119.332C119.525 118.796 120.386 118.796 120.917 119.322L126.619 124.963L135.665 114.972C136.168 114.413 137.029 114.371 137.588 114.878C138.147 115.382 138.189 116.243 137.682 116.802L126.726 128.895Z" fill="#23809B"/>
<path d="M126.726 149.055L119.003 141.415C118.467 140.884 118.462 140.023 118.994 139.492C119.525 138.956 120.386 138.956 120.917 139.482L126.619 145.123L135.665 135.132C136.168 134.573 137.029 134.531 137.588 135.039C138.147 135.542 138.189 136.403 137.682 136.962L126.726 149.055Z" fill="#23809B"/>
<path d="M134.608 158.359H121.23V171.737H134.608V158.359Z" fill="#ABD5E6"/>
<path d="M136.024 173.153H119.814V156.943H136.024V173.153ZM120.303 172.664H135.535V157.432H120.303V172.664Z" fill="#ABD5E6"/>
<path d="M134.608 178.852H121.23V192.229H134.608V178.852Z" fill="#ABD5E6"/>
<path d="M136.024 193.642H119.814V177.432H136.024V193.642ZM120.303 193.153H135.535V177.921H120.303V193.153Z" fill="#ABD5E6"/>
<path d="M200.057 98.8789H140.863V100.495H200.057V98.8789Z" fill="#23809B"/>
<path d="M200.057 102.754H140.863V104.37H200.057V102.754Z" fill="#23809B"/>
<path d="M159.164 106.635H140.863V108.251H159.164V106.635Z" fill="#23809B"/>
<path d="M200.057 119.115H140.863V120.732H200.057V119.115Z" fill="#23809B"/>
<path d="M200.057 122.996H140.863V124.612H200.057V122.996Z" fill="#23809B"/>
<path d="M179.543 126.871H140.863V128.487H179.543V126.871Z" fill="#23809B"/>
<path d="M200.057 139.354H140.863V140.97H200.057V139.354Z" fill="#23809B"/>
<path d="M191.491 143.229H140.863V144.845H191.491V143.229Z" fill="#23809B"/>
<path d="M159.164 147.105H140.863V148.722H159.164V147.105Z" fill="#23809B"/>
<path d="M200.057 159.588H140.863V161.204H200.057V159.588Z" fill="#23809B"/>
<path d="M170.693 163.463H140.863V165.079H170.693V163.463Z" fill="#23809B"/>
<path d="M200.057 179.822H140.863V181.439H200.057V179.822Z" fill="#23809B"/>
<path d="M200.057 183.703H140.863V185.319H200.057V183.703Z" fill="#23809B"/>
<path d="M184.024 187.578H140.863V189.194H184.024V187.578Z" fill="#23809B"/>
<path d="M188.552 82.416H132.278V86.4033H188.552V82.416Z" fill="#23809B"/>
<path d="M161.936 61.6121C161.936 62.4972 161.219 63.2145 160.334 63.2145C159.449 63.2145 158.731 62.4972 158.731 61.6121C158.731 60.7271 159.449 60.0098 160.334 60.0098C161.219 60.0098 161.936 60.7271 161.936 61.6121Z" fill="white"/>
<path d="M47.5625 206.123L46.6496 210.641C46.6496 210.641 40.8876 211.894 40.5429 213.213C40.1935 214.535 52.6398 213.632 52.6398 213.632L53.9627 206.123" fill="#47648F"/>
<path opacity="0.1" d="M45.6384 204.111C45.2611 204.39 45.0981 204.893 45.1493 205.359C45.2006 205.825 45.4381 206.253 45.7316 206.612C46.4629 207.506 47.5482 208.047 48.6522 208.396C49.7002 208.727 50.7949 208.909 51.8942 208.932C53.259 208.964 54.703 208.722 55.765 207.86C56.8271 206.999 57.3627 205.392 56.6827 204.204C56.31 203.556 55.6532 203.123 54.9918 202.779C53.7947 202.159 52.4951 201.744 51.1629 201.549" fill="#1D262D"/>
<path d="M78.8499 206.123L78.7055 210.641C78.7055 210.641 84.4675 211.894 84.8122 213.213C85.1615 214.535 72.7152 213.632 72.7152 213.632L72.4497 206.123" fill="#47648F"/>
<path opacity="0.1" d="M72.706 203.723C71.8303 204.226 71.0896 204.958 70.5773 205.824C70.3024 206.29 70.0882 206.802 70.0695 207.343C70.0509 207.883 70.2558 208.451 70.689 208.773C70.9546 208.973 71.2899 209.066 71.616 209.117C72.2681 209.215 73.7354 209.397 74.3922 209.332C76.2508 209.15 77.4153 208.666 78.8872 207.51C80.6247 206.15 81.2861 203.579 80.4151 201.553" fill="#1D262D"/>
<path d="M104.427 101.424C104.427 101.424 100.151 100.092 100.239 98.8527C100.328 97.6137 103.211 98.6245 103.211 98.6245C103.211 98.6245 101.604 92.7181 102.298 92.2383C102.987 91.7585 104.031 95.4524 104.031 95.4524C104.031 95.4524 104.231 91.8517 105.163 91.9169C106.094 91.9868 105.913 94.8701 105.913 94.8701C105.913 94.8701 106.951 92.5737 107.86 92.9556C108.768 93.3329 107.273 95.8343 107.273 95.8343C107.273 95.8343 109.579 94.5301 109.942 95.1542C110.305 95.7784 108.493 97.8652 108.493 97.8652C108.493 97.8652 110.734 99.9753 108.032 104.028C107.291 103.716 105.191 102.747 104.096 102.975L104.427 101.424Z" fill="#FFD1BB"/>
<path d="M76.6792 119.353C76.6792 119.353 96.0334 121.062 103.435 102.295C108.722 101.499 108.722 105.23 108.722 105.23C108.722 105.23 101.404 132.712 78.6961 129.112" fill="#FFD555"/>
<path d="M55.4517 153.254C55.4517 153.254 49.5173 186.866 46.6479 206.975C52.8152 207.655 54.1101 207.241 54.1101 207.241L65.5596 166.147C65.5596 166.147 68.6992 166.147 70.5857 166.147C70.9583 166.543 72.0902 207.241 72.0902 207.241C72.0902 207.241 77.2653 208.005 79.3009 206.947C79.3009 206.947 81.6299 175.627 82.2541 158.643L55.4517 153.254Z" fill="#798EC9"/>
<path opacity="0.1" d="M43.564 153.594C51.9391 160.027 62.7365 163.222 73.2684 162.389C83.7956 161.555 93.9594 156.706 101.221 149.039C83.176 147.725 64.5532 146.672 47.4581 152.602" fill="#1D262D"/>
<path d="M71.8524 118.613C71.8524 118.613 65.3451 118.986 63.5424 120.728C61.7351 122.475 57.8829 134.334 55.4561 153.255C65.1448 163.475 82.2585 158.649 82.2585 158.649C82.2585 158.649 83.1295 124.17 82.2119 122.438C80.4512 119.121 71.8524 118.613 71.8524 118.613Z" fill="#FFD555"/>
<path opacity="0.2" d="M63.3422 153.627C73.399 154.437 81.8394 149.337 85.468 146.519C86.1807 145.964 87.1868 145.894 87.8715 145.308C88.5609 144.725 89.0407 143.808 88.8544 142.923C88.5656 141.53 86.9306 140.943 85.5378 140.677C78.8908 139.406 72.0342 139.895 65.457 141.344C62.5271 141.991 49.1864 144.11 53.7187 149.453C55.6751 151.764 60.417 153.394 63.3422 153.627Z" fill="#D15579"/>
<path d="M29.5685 155.199L28.3528 150.951C27.8311 149.125 28.8838 147.22 30.7098 146.698L91.7256 129.207L94.8372 140.065L33.8213 157.556C31.9954 158.082 30.0902 157.025 29.5685 155.199Z" fill="#DD7E62"/>
<path opacity="0.43" d="M89.9727 147.3L83.4204 124.445L81.3964 125.026L87.9488 147.88L89.9727 147.3Z" fill="white"/>
<path opacity="0.43" d="M40.5894 161.456L34.0371 138.602L32.0131 139.182L38.5655 162.036L40.5894 161.456Z" fill="white"/>
<path d="M38.8829 162.597L32.3306 139.742L16.0001 144.424L22.5524 167.279L38.8829 162.597Z" fill="#215B74"/>
<path opacity="0.5" d="M104.421 145.767L101.277 134.801L25.1232 156.634L28.2671 167.6L104.421 145.767Z" fill="#D15579"/>
<path opacity="0.2" d="M99.85 129.835L96.7061 118.869L20.5523 140.702L23.6963 151.668L99.85 129.835Z" fill="#D15579"/>
<path d="M91.7251 129.205L102.22 132.07L94.8367 140.063L91.7251 129.205Z" fill="#FFEAAA"/>
<path d="M107.841 137.651C111.3 136.179 112.911 132.182 111.439 128.723C109.967 125.265 105.97 123.654 102.511 125.126C99.0528 126.598 97.4422 130.595 98.914 134.053C100.386 137.512 104.383 139.123 107.841 137.651Z" fill="#23809B"/>
<path d="M62.2488 146.046C62.2488 146.046 65.4629 145.879 66.9022 146.489C68.3416 147.099 69.0403 147.458 69.0403 147.458L71.9143 146.633C71.9143 146.633 71.2202 150.42 67.7826 150.695C64.345 150.97 61.415 149.978 61.415 149.978L62.2488 146.046Z" fill="#FFD1BB"/>
<path d="M68.132 119.119C68.132 119.119 47.8322 120.372 46.118 138.292C44.9395 150.617 62.1277 151.241 62.1277 151.241L62.9336 145.777C62.9336 145.777 55.7183 142.787 55.7183 138.376C55.7183 133.964 63.5438 130.699 63.5438 130.699L68.132 119.119Z" fill="#FFD555"/>
<path d="M72.0865 118.314C68.4905 118.314 65.0249 119.577 65.0249 119.577L73.4094 126.699L80.1636 119.302C80.1682 119.302 77.8625 118.314 72.0865 118.314Z" fill="#FFAA4D"/>
<path d="M67.4751 113.283C67.4751 113.283 64.4381 113.511 63.3807 112.551C61.2473 110.614 59.7288 99.4949 59.6496 97.1566C59.5704 94.8229 62.3513 91.5157 65.5793 91.497C66.0404 88.0594 67.9596 89.1214 67.9596 89.1214C67.9596 89.1214 67.0559 87.6774 68.1925 86.6387C68.8353 87.8684 69.2033 88.8186 69.2033 88.8186C69.2033 88.8186 70.9966 87.3467 75.0538 88.0966C79.1156 88.8466 81.6216 86.8995 82.5812 88.8606C83.5408 90.8216 85.1152 96.8351 82.4927 97.981C79.8702 99.1316 66.2687 106.31 67.4751 113.283Z" fill="#27305C"/>
<path d="M67.019 110.576L68.2954 120.372L73.3307 124.657L77.5276 120.372V114.06" fill="#FFD1BB"/>
<path opacity="0.2" d="M71.4813 105.773C70.2702 105.797 69.1849 106.658 68.6212 107.734C68.0576 108.81 67.9458 110.064 67.9924 111.279C68.0297 112.257 68.1694 113.25 68.5653 114.149C69.0544 115.262 69.9115 116.184 70.899 116.888C72.2173 117.828 73.8383 118.415 75.4499 118.262C77.0616 118.108 78.6314 117.111 79.2323 115.607C79.903 113.93 79.2975 111.987 78.31 110.473C77.1734 108.731 75.4499 107.283 73.4097 106.873C72.5387 106.696 71.5372 106.747 70.8897 107.362" fill="#D15579"/>
<path d="M68.8865 93.4826C65.514 94.9266 62.3 107.392 66.5015 112.762C70.7031 118.133 80.7738 117.118 84.272 113.023C87.1274 109.688 82.9445 87.4737 68.8865 93.4826Z" fill="#FFD1BB"/>
<path d="M78.8737 100.985C78.2821 101.269 79.3395 107.106 79.3395 107.106C80.1407 107.208 82.6281 105.881 82.6281 105.359C82.6327 105.354 80.0009 100.445 78.8737 100.985Z" fill="#FFA690"/>
<path d="M62.3379 106.245C62.3938 105.267 63.2275 104.503 64.1219 104.103C65.0162 103.702 66.4137 105.989 67.3918 105.938C68.9849 105.854 70.2845 105.076 70.4615 104.424C70.5873 103.963 70.4801 98.5735 71.1556 97.8002C72.3061 96.4867 74.2904 96.4121 76.0372 96.4261C77.784 96.4401 79.7776 96.3283 80.8816 94.9728C81.1331 94.6607 81.3287 94.2881 81.38 93.8921C81.4638 93.2633 81.1937 92.6345 80.821 92.1267C79.54 90.3753 77.1551 89.7884 74.9891 89.9048C71.4676 90.1005 68.0952 91.8845 65.8128 94.5722C63.5257 97.2599 62.3146 100.795 62.2866 104.326" fill="#27305C"/>
<path d="M67.9695 106.868C67.9695 106.868 68.3887 100.351 65.0443 101.292C61.6998 102.233 62.4917 108.792 66.2973 108.666" fill="#FFD1BB"/>
<path d="M73.3631 100.803C73.2141 101.134 73.6426 102.01 74.1131 101.94C74.5835 101.87 76.8846 101.572 77.1129 101.031C77.3411 100.491 76.9452 99.8249 76.6284 99.7178C76.307 99.606 73.5494 100.393 73.3631 100.803Z" fill="#27305C"/>
<path d="M80.5557 99.0479C80.388 99.36 80.6768 100.278 81.1007 100.259C81.5246 100.24 83.5881 100.203 83.849 99.6907C84.1098 99.1783 83.8257 98.475 83.5555 98.3306C83.2854 98.1815 80.7607 98.6613 80.5557 99.0479Z" fill="#27305C"/>
<path d="M76.3488 104.655C76.5352 104.739 76.7215 104.707 76.8938 104.66C77.1593 104.585 77.4388 104.441 77.5133 104.073C77.5739 103.761 77.4668 103.384 77.3224 103.067C77.2432 102.895 77.1547 102.732 77.0429 102.601C76.7215 102.224 76.2603 102.238 76.0228 102.592C75.7153 103.039 75.7526 104.385 76.3488 104.655Z" fill="#0A303E"/>
<path d="M82.0182 103.282C82.2045 103.366 82.3908 103.334 82.5632 103.287C82.8287 103.212 83.1082 103.068 83.1827 102.7C83.2433 102.388 83.1361 102.011 82.9917 101.694C82.9125 101.522 82.824 101.359 82.7123 101.228C82.3908 100.851 81.9297 100.865 81.6921 101.219C81.3894 101.671 81.422 103.017 82.0182 103.282Z" fill="#0A303E"/>
<path d="M67.0139 104.124C66.9673 103.458 66.5667 102.82 65.9705 102.522C65.5512 102.312 65.0156 102.28 64.629 102.545C64.2423 102.811 64.0886 103.412 64.3821 103.775C64.5311 103.961 64.7734 104.078 64.8432 104.306C64.9084 104.525 64.7873 104.753 64.6942 104.963C64.4985 105.401 64.438 105.964 64.7687 106.309C64.969 106.519 65.2857 106.598 65.5652 106.523C66.4176 106.29 67.0744 104.93 67.0139 104.124Z" fill="#FFA690"/>
<path d="M65.23 146.56C65.23 146.56 67.9177 145.326 68.5978 145.237C69.2825 145.149 69.6318 145.759 69.4548 146.118C69.2778 146.472 67.3634 147.617 67.3634 147.617" fill="#FFD1BB"/>
<path d="M227.362 88.9207C228.967 88.9207 230.269 87.6193 230.269 86.014C230.269 84.4088 228.967 83.1074 227.362 83.1074C225.757 83.1074 224.456 84.4088 224.456 86.014C224.456 87.6193 225.757 88.9207 227.362 88.9207Z" fill="#E15C56"/>
<path d="M224.777 55.7364C224.777 57.2689 223.538 58.5079 222.005 58.5079C220.473 58.5079 219.234 57.2689 219.234 55.7364C219.234 54.2039 220.473 52.9648 222.005 52.9648C223.538 52.9648 224.777 54.2039 224.777 55.7364Z" fill="#215B74"/>
<path d="M199.423 41.8511C200.266 42.6942 200.266 44.0543 199.423 44.8974C198.58 45.7406 197.22 45.7406 196.377 44.8974C195.534 44.0543 195.534 42.6942 196.377 41.8511C197.22 41.008 198.58 41.008 199.423 41.8511Z" fill="#FFCE68"/>
<path d="M232.421 151.786C233.612 151.786 234.578 150.82 234.578 149.629C234.578 148.438 233.612 147.473 232.421 147.473C231.23 147.473 230.265 148.438 230.265 149.629C230.265 150.82 231.23 151.786 232.421 151.786Z" fill="#FFCE68"/>
<path d="M178.751 38.0402C178.751 39.1675 177.838 40.0805 176.711 40.0805C175.583 40.0805 174.67 39.1675 174.67 38.0402C174.67 36.913 175.583 36 176.711 36C177.838 36 178.751 36.913 178.751 38.0402Z" fill="#FFCE68"/>
<path d="M35.9769 178.425C35.9769 179.552 35.064 180.465 33.9367 180.465C32.8095 180.465 31.8965 179.552 31.8965 178.425C31.8965 177.298 32.8095 176.385 33.9367 176.385C35.064 176.385 35.9769 177.298 35.9769 178.425Z" fill="#FFCE68"/>
<path d="M193.466 56.7238C193.466 57.2688 193.023 57.7113 192.478 57.7113C191.933 57.7113 191.491 57.2688 191.491 56.7238C191.491 56.1788 191.933 55.7363 192.478 55.7363C193.023 55.7363 193.466 56.1788 193.466 56.7238Z" fill="#23809B"/>
<path d="M220.254 38.0402C220.817 38.0402 221.274 37.5835 221.274 37.0201C221.274 36.4567 220.817 36 220.254 36C219.691 36 219.234 36.4567 219.234 37.0201C219.234 37.5835 219.691 38.0402 220.254 38.0402Z" fill="#23809B"/>
<path d="M238.979 100.993C239.542 100.993 239.999 100.537 239.999 99.9732C239.999 99.4098 239.542 98.9531 238.979 98.9531C238.416 98.9531 237.959 99.4098 237.959 99.9732C237.959 100.537 238.416 100.993 238.979 100.993Z" fill="#23809B"/>
<path d="M140.093 47.502C141.233 47.502 142.157 46.5782 142.157 45.4385C142.157 44.2989 141.233 43.375 140.093 43.375C138.954 43.375 138.03 44.2989 138.03 45.4385C138.03 46.5782 138.954 47.502 140.093 47.502Z" fill="#DC894E"/>
<path d="M88.1892 71.4282C89.1925 71.4282 90.0058 70.6149 90.0058 69.6116C90.0058 68.6083 89.1925 67.7949 88.1892 67.7949C87.1859 67.7949 86.3726 68.6083 86.3726 69.6116C86.3726 70.6149 87.1859 71.4282 88.1892 71.4282Z" fill="#23809B"/>
<path d="M90.0057 51.8178C90.0057 53.1686 88.911 54.2586 87.5648 54.2586C86.214 54.2586 85.124 53.1639 85.124 51.8178C85.124 50.4716 86.2187 49.377 87.5648 49.377C88.911 49.377 90.0057 50.4669 90.0057 51.8178Z" fill="#FFCE68"/>
<path d="M53.957 77.6992C53.957 78.9942 52.9043 80.0469 51.6094 80.0469C50.3144 80.0469 49.2617 78.9942 49.2617 77.6992C49.2617 76.4043 50.3144 75.3516 51.6094 75.3516C52.9043 75.3516 53.957 76.3996 53.957 77.6992Z" fill="#FFCE68"/>
<path d="M77.5268 70.5947C77.5268 71.3679 76.8979 71.9921 76.1293 71.9921C75.3561 71.9921 74.7319 71.3633 74.7319 70.5947C74.7319 69.8215 75.3608 69.1973 76.1293 69.1973C76.9026 69.1926 77.5268 69.8215 77.5268 70.5947Z" fill="#215B74"/>
<path d="M47.4638 168.083C47.4638 168.856 46.8349 169.48 46.0664 169.48C45.2931 169.48 44.6689 168.852 44.6689 168.083C44.6689 167.31 45.2978 166.686 46.0664 166.686C46.8349 166.686 47.4638 167.31 47.4638 168.083Z" fill="#215B74"/>
<path d="M55.452 54.884C55.452 55.946 54.5903 56.8031 53.5329 56.8031C52.4709 56.8031 51.6138 55.9413 51.6138 54.884C51.6138 53.8219 52.4755 52.9648 53.5329 52.9648C54.5903 52.9648 55.452 53.8266 55.452 54.884Z" fill="#DC894E"/>
<path d="M35.5766 107.519C35.5766 108.422 34.8453 109.158 33.937 109.158C33.0333 109.158 32.2974 108.427 32.2974 107.519C32.2974 106.615 33.0287 105.879 33.937 105.879C34.8453 105.879 35.5766 106.615 35.5766 107.519Z" fill="#E15C56"/>
</svg>
